<?xml version="1.0" standalone="no"?>
<!DOCTYPE svg PUBLIC "-//W3C//DTD SVG 20010904//EN"
 "http://www.w3.org/TR/2001/REC-SVG-20010904/DTD/svg10.dtd">
<svg version="1.0" xmlns="http://www.w3.org/2000/svg"
 width="128.000000pt" height="128.000000pt" viewBox="0 0 128.000000 128.000000"
 preserveAspectRatio="xMidYMid meet">

<g transform="translate(0.000000,128.000000) scale(0.100000,-0.100000)"
fill="#000000" stroke="none">
<path d="M540 985 c-138 -39 -260 -187 -260 -316 0 -24 -9 -33 -82 -71 -86
-45 -182 -128 -193 -165 -8 -29 22 -58 72 -72 45 -13 206 -13 278 -1 37 6 54
5 65 -6 9 -7 42 -26 75 -41 79 -36 190 -38 278 -4 72 28 153 105 186 178 15
33 31 53 45 57 31 8 186 102 219 134 16 15 35 40 44 55 13 25 13 31 0 51 -22
33 -81 46 -208 46 l-114 0 -43 49 c-84 98 -233 142 -362 106z m219 -36 c57
-25 115 -69 104 -79 -4 -5 -25 -11 -45 -15 -35 -7 -38 -5 -52 29 -17 41 -70
70 -110 60 -41 -10 -71 -50 -71 -96 0 -33 6 -45 34 -70 28 -25 40 -29 69 -24
19 3 47 16 61 29 14 13 53 31 86 40 70 20 76 17 105 -60 18 -48 18 -52 2 -67
-68 -60 -356 -152 -543 -171 -57 -6 -67 -5 -73 10 -9 23 -9 23 65 44 62 17 64
17 96 -2 74 -43 148 25 117 108 -9 23 -62 48 -90 41 -31 -8 -64 -45 -64 -72 0
-18 -10 -24 -58 -38 -82 -23 -82 -23 -82 33 0 94 7 110 58 124 41 12 47 12 64
-5 37 -37 98 -10 98 43 0 28 -30 59 -58 59 -7 0 -28 -16 -48 -35 -32 -32 -74
-47 -74 -26 0 4 19 29 41 55 93 105 243 139 368 85z m-34 -54 c30 -30 31 -54
4 -89 -25 -32 -64 -34 -96 -4 -31 29 -30 71 3 97 35 27 59 26 89 -4z m-217
-93 c-2 -23 -8 -27 -33 -27 -24 0 -31 5 -33 24 -5 32 23 54 50 40 13 -7 18
-19 16 -37z m722 -5 c40 -19 37 -44 -13 -91 -204 -196 -1118 -415 -1188 -285
-9 18 -5 27 38 67 27 27 85 65 133 89 84 41 85 41 93 20 5 -13 3 -31 -5 -45
-17 -32 1 -42 74 -42 167 0 532 114 609 191 18 18 19 23 6 37 -8 9 -18 27 -21
39 -6 18 -3 23 16 28 75 16 215 12 258 -8z m-644 -133 c14 -56 -27 -94 -77
-74 -51 22 -51 80 1 107 30 15 68 -2 76 -33z m347 -166 c-24 -41 -110 -67
-158 -47 -29 11 -28 12 65 44 52 19 99 34 103 34 5 1 0 -13 -10 -31z m-211
-54 c-26 -18 -29 -56 -6 -78 29 -30 66 -16 99 37 6 8 25 18 44 22 43 9 36 -2
-32 -49 -115 -79 -254 -83 -366 -9 -24 16 -21 17 120 53 172 45 169 44 141 24z"/>
<path d="M1118 755 c3 -17 -6 -30 -35 -51 -60 -44 -62 -50 -8 -19 58 32 96 65
90 75 -3 4 -15 10 -28 12 -20 4 -23 1 -19 -17z"/>
<path d="M137 492 c-26 -29 -13 -42 41 -42 l47 1 -32 14 c-17 7 -33 21 -35 30
-3 15 -5 15 -21 -3z"/>
<path d="M238 443 c7 -3 16 -2 19 1 4 3 -2 6 -13 5 -11 0 -14 -3 -6 -6z"/>
</g>
</svg>
